<svg id="Layer_1" data-name="Layer 1" xmlns="http://www.w3.org/2000/svg" viewBox="0 0 80.06 80.06"><defs><style>.cls-1{fill:#fff;}</style></defs><path class="cls-1" d="M17,89.71a1,1,0,0,0,.7.29,1,1,0,0,0,.71-.29l71.29-71.3A1,1,0,0,0,90,17.7a1,1,0,0,0-.29-.7L83,10.29a1,1,0,0,0-1.41,0L10.29,81.59a1,1,0,0,0-.29.71,1,1,0,0,0,.29.7Zm65.28-77.3,5.3,5.3L72.4,32.89,67.11,27.6ZM65.69,29,71,34.3,17.71,87.59l-5.3-5.3Z" transform="translate(-10 -10)"/><path class="cls-1" d="M27.74,27.74a5.82,5.82,0,1,0-4.1,1.69A5.78,5.78,0,0,0,27.74,27.74ZM21,21a3.79,3.79,0,0,1,5.36,0,3.79,3.79,0,0,1,0,5.36,3.87,3.87,0,0,1-5.36,0A3.79,3.79,0,0,1,21,21Z" transform="translate(-10 -10)"/><path class="cls-1" d="M39,40a1,1,0,0,0,1-1.24L38.34,32a5.51,5.51,0,0,0-3.63-3.92,5.14,5.14,0,0,0-4.93.87,4.89,4.89,0,0,0-.83.83,5.14,5.14,0,0,0-.87,4.93A5.51,5.51,0,0,0,32,38.34L38.8,40A1,1,0,0,0,39,40ZM32.48,36.4A3.53,3.53,0,0,1,30,34.07a3.12,3.12,0,0,1,.52-3c.09-.1.17-.2.26-.29s.2-.18.29-.26a3,3,0,0,1,2-.7,3.37,3.37,0,0,1,1.07.17,3.53,3.53,0,0,1,2.33,2.51l1.27,5.19Z" transform="translate(-10 -10)"/><path class="cls-1" d="M16.7,38.91a5.79,5.79,0,1,0-1.81,11.44,5.62,5.62,0,0,0,.92.07,5.79,5.79,0,0,0,.89-11.51Zm2.84,6.31a3.79,3.79,0,1,1-3.75-4.38,4,4,0,0,1,.6,0,3.8,3.8,0,0,1,3.15,4.34Z" transform="translate(-10 -10)"/><path class="cls-1" d="M25.89,51a5.49,5.49,0,0,0,5.31.64L37.68,49a1,1,0,0,0,.61-.77,1,1,0,0,0-.34-.92L32.6,42.76a5.49,5.49,0,0,0-5.24-1,5.13,5.13,0,0,0-3.48,3.59,5.41,5.41,0,0,0-.12.58,5.9,5.9,0,0,0-.06.59A5.15,5.15,0,0,0,25.89,51Zm-.16-4.77c0-.12.05-.25.08-.38A3.15,3.15,0,0,1,28,43.62,3.67,3.67,0,0,1,29,43.46a3.46,3.46,0,0,1,2.27.83l4.08,3.44-4.94,2a3.54,3.54,0,0,1-3.4-.4,3.15,3.15,0,0,1-1.36-2.76C25.7,46.46,25.71,46.33,25.73,46.2Z" transform="translate(-10 -10)"/><path class="cls-1" d="M44.63,21.59a7.11,7.11,0,0,0,.91-.07,5.82,5.82,0,0,0,3.78-2.32,5.79,5.79,0,1,0-4.69,2.39ZM44,12.05a3.79,3.79,0,1,1-3.16,4.34A3.79,3.79,0,0,1,44,12.05Z" transform="translate(-10 -10)"/><path class="cls-1" d="M47.27,38a1,1,0,0,0,.77.35h.15a1,1,0,0,0,.77-.61L51.6,31.2A5.5,5.5,0,0,0,51,25.89a5.13,5.13,0,0,0-4.49-2.19l-.59.06a5.41,5.41,0,0,0-.58.12,5.13,5.13,0,0,0-3.59,3.48,5.49,5.49,0,0,0,1,5.24ZM43.62,28a3.15,3.15,0,0,1,2.21-2.15,2.41,2.41,0,0,1,.37-.07,2.6,2.6,0,0,1,.39,0h.18a3.16,3.16,0,0,1,2.58,1.36,3.52,3.52,0,0,1,.4,3.39l-2,4.95-3.45-4.08A3.53,3.53,0,0,1,43.62,28Z" transform="translate(-10 -10)"/><path class="cls-1" d="M70.63,76.42a5.79,5.79,0,1,0,1.69-4.1A5.78,5.78,0,0,0,70.63,76.42Zm3.11-2.68a3.79,3.79,0,1,1,0,5.36A3.78,3.78,0,0,1,73.74,73.74Z" transform="translate(-10 -10)"/><path class="cls-1" d="M60.32,60.32a1,1,0,0,0-.27.94l1.67,6.8A5.51,5.51,0,0,0,65.35,72a5.27,5.27,0,0,0,1.7.28,5,5,0,0,0,3.23-1.15,4.89,4.89,0,0,0,.83-.83A5.14,5.14,0,0,0,72,65.35a5.51,5.51,0,0,0-3.92-3.63l-6.8-1.67A1,1,0,0,0,60.32,60.32Zm7.26,3.34A3.53,3.53,0,0,1,70.09,66a3.09,3.09,0,0,1-.53,3,3.58,3.58,0,0,1-.55.55,3.12,3.12,0,0,1-3,.53,3.53,3.53,0,0,1-2.33-2.51l-1.27-5.19Z" transform="translate(-10 -10)"/><path class="cls-1" d="M85.17,49.71a5.79,5.79,0,1,0-1.81,11.44,5.67,5.67,0,0,0,.91.07,5.79,5.79,0,0,0,.9-11.51ZM88,56a3.79,3.79,0,1,1-3.75-4.38,4,4,0,0,1,.6,0A3.8,3.8,0,0,1,88,56Z" transform="translate(-10 -10)"/><path class="cls-1" d="M74.17,49.09a5.47,5.47,0,0,0-5.31-.63L62.38,51.1a1,1,0,0,0-.61.77,1,1,0,0,0,.34.92l5.35,4.51a5.45,5.45,0,0,0,5.24,1,5.13,5.13,0,0,0,3.48-3.59,5.41,5.41,0,0,0,.12-.58c0-.2,0-.4.06-.59A5.15,5.15,0,0,0,74.17,49.09Zm.15,4.77a2.87,2.87,0,0,1-.08.38,3.12,3.12,0,0,1-2.14,2.2,3.55,3.55,0,0,1-3.35-.66l-4.08-3.45,5-2a3.52,3.52,0,0,1,3.39.4,3.15,3.15,0,0,1,1.36,2.76A2.6,2.6,0,0,1,74.32,53.86Z" transform="translate(-10 -10)"/><path class="cls-1" d="M54.52,78.54a5.8,5.8,0,0,0-4.81,6.63A5.8,5.8,0,0,0,56.34,90a5.8,5.8,0,0,0-1.82-11.45Zm4,8A3.79,3.79,0,0,1,56,88a3.8,3.8,0,0,1-4.34-3.15,3.8,3.8,0,0,1,3.16-4.34,4,4,0,0,1,.59,0,3.8,3.8,0,0,1,3.07,6Z" transform="translate(-10 -10)"/><path class="cls-1" d="M52.79,62.11a1,1,0,0,0-1.69.27l-2.65,6.48a5.5,5.5,0,0,0,.64,5.31,5.15,5.15,0,0,0,4.21,2.2h.28a5.9,5.9,0,0,0,.59-.06c.19,0,.39-.07.58-.12a5.13,5.13,0,0,0,3.59-3.48,5.49,5.49,0,0,0-1-5.24Zm3.65,10a3.14,3.14,0,0,1-2.2,2.14c-.13,0-.25.06-.39.09l-.38,0A3.16,3.16,0,0,1,50.71,73a3.52,3.52,0,0,1-.4-3.39l2-5,3.44,4.08A3.51,3.51,0,0,1,56.44,72.1Z" transform="translate(-10 -10)"/></svg>