<svg id="Layer_1" data-name="Layer 1" xmlns="http://www.w3.org/2000/svg" viewBox="0 0 57.9 57.91"><defs><style>.cls-1{fill:#fff;}</style></defs><path class="cls-1" d="M5.91,58.28a.74.74,0,0,0,.51.21.71.71,0,0,0,.51-.21L58.48,6.72a.73.73,0,0,0,.22-.52.67.67,0,0,0-.21-.5L53.64.84a.72.72,0,0,0-1,0L1.06,52.41a.69.69,0,0,0-.21.51.71.71,0,0,0,.21.51ZM53.12,2.38,57,6.21l-11,11-3.82-3.83Zm-12,12L45,18.21,6.42,56.75,2.59,52.91Z" transform="translate(-0.85 -0.63)"/><path class="cls-1" d="M13.68,13.46a4.2,4.2,0,1,0-3,1.23A4.2,4.2,0,0,0,13.68,13.46ZM8.8,8.59a2.75,2.75,0,0,1,3.88,0h0a2.75,2.75,0,0,1,0,3.88h0a2.8,2.8,0,0,1-3.88,0,2.75,2.75,0,0,1,0-3.88Z" transform="translate(-0.85 -0.63)"/><path class="cls-1" d="M21.82,22.33a.72.72,0,0,0,.74-.7.46.46,0,0,0,0-.2l-1.2-4.89a4,4,0,0,0-2.62-2.83,3.74,3.74,0,0,0-3.57.63,3.78,3.78,0,0,0-.6.6,3.73,3.73,0,0,0-.63,3.56,4,4,0,0,0,2.84,2.63l4.91,1.2A.38.38,0,0,0,21.82,22.33Zm-4.72-2.6A2.58,2.58,0,0,1,15.31,18a2.24,2.24,0,0,1,.38-2.17l.18-.21.21-.19a2.24,2.24,0,0,1,1.45-.5,2.53,2.53,0,0,1,.77.12A2.56,2.56,0,0,1,20,16.91l.92,3.75Z" transform="translate(-0.85 -0.63)"/><path class="cls-1" d="M5.69,21.54a4.19,4.19,0,0,0-1.31,8.28,5,5,0,0,0,.67.05,4.19,4.19,0,0,0,.64-8.33Zm2.06,4.57A2.74,2.74,0,1,1,5,22.94a3.23,3.23,0,0,1,.44,0,2.75,2.75,0,0,1,2.28,3.14Z" transform="translate(-0.85 -0.63)"/><path class="cls-1" d="M12.34,30.29a4,4,0,0,0,3.84.46l4.68-1.91a.74.74,0,0,0,.45-.56.72.72,0,0,0-.25-.66l-3.87-3.29a4,4,0,0,0-3.79-.73,3.74,3.74,0,0,0-2.52,2.6c0,.14-.06.28-.08.42s0,.28-.05.43A3.75,3.75,0,0,0,12.34,30.29Zm-.12-3.45a1.57,1.57,0,0,1,.06-.28A2.29,2.29,0,0,1,13.86,25a3,3,0,0,1,.73-.12,2.53,2.53,0,0,1,1.64.6l2.95,2.49-3.57,1.45a2.57,2.57,0,0,1-2.46-.29,2.3,2.3,0,0,1-1-2,.76.76,0,0,0,.06-.27Z" transform="translate(-0.85 -0.63)"/><path class="cls-1" d="M25.89,9c.22,0,.44,0,.66,0a4.22,4.22,0,1,0-.66,0Zm-.45-6.9a2.74,2.74,0,1,1-2.29,3.14,2.73,2.73,0,0,1,2.29-3.14Z" transform="translate(-0.85 -0.63)"/><path class="cls-1" d="M27.8,20.88a.71.71,0,0,0,.56.26h.11A.71.71,0,0,0,29,20.7L30.93,16a4,4,0,0,0-.43-3.84,3.72,3.72,0,0,0-3.25-1.59l-.43.05-.42.08a3.71,3.71,0,0,0-2.59,2.52A4,4,0,0,0,24.53,17Zm-2.64-7.23a2.27,2.27,0,0,1,1.6-1.55,1.28,1.28,0,0,1,.27,0,1.31,1.31,0,0,1,.28,0h.13a2.27,2.27,0,0,1,1.86,1,2.51,2.51,0,0,1,.29,2.45l-1.44,3.58-2.5-2.95A2.56,2.56,0,0,1,25.16,13.65Z" transform="translate(-0.85 -0.63)"/><path class="cls-1" d="M44.69,48.67a4.2,4.2,0,1,0,1.23-3A4.2,4.2,0,0,0,44.69,48.67Zm2.25-1.94a2.74,2.74,0,1,1,0,3.88,2.75,2.75,0,0,1,0-3.88Z" transform="translate(-0.85 -0.63)"/><path class="cls-1" d="M37.24,37a.71.71,0,0,0-.2.68l1.21,4.91a4,4,0,0,0,2.63,2.85,3.67,3.67,0,0,0,3.56-.63,3.1,3.1,0,0,0,.6-.6,3.71,3.71,0,0,0,.64-3.58A4,4,0,0,0,42.85,38l-4.92-1.21A.71.71,0,0,0,37.24,37Zm5.25,2.41a2.55,2.55,0,0,1,1.81,1.69,2.21,2.21,0,0,1-.38,2.17,2.52,2.52,0,0,1-.4.4,2.24,2.24,0,0,1-2.17.38,2.55,2.55,0,0,1-1.68-1.81l-.92-3.75Z" transform="translate(-0.85 -0.63)"/><path class="cls-1" d="M55.21,29.35a4.19,4.19,0,0,0-1.31,8.28,4.89,4.89,0,0,0,.66,0,4.19,4.19,0,0,0,.65-8.33Zm2,4.55a2.74,2.74,0,1,1-2.72-3.17,3.23,3.23,0,0,1,.44,0,2.75,2.75,0,0,1,2.28,3.15Z" transform="translate(-0.85 -0.63)"/><path class="cls-1" d="M47.25,28.9a3.94,3.94,0,0,0-3.84-.45l-4.68,1.91a.69.69,0,0,0-.44.55.73.73,0,0,0,.24.67l3.87,3.26a3.92,3.92,0,0,0,3.79.72A3.71,3.71,0,0,0,48.71,33c0-.14.06-.28.08-.42a1.24,1.24,0,0,1,.05-.43A3.75,3.75,0,0,0,47.25,28.9Zm.11,3.45a1.27,1.27,0,0,1-.06.28,2.25,2.25,0,0,1-1.54,1.59,2.6,2.6,0,0,1-2.43-.48l-2.95-2.49L44,29.8a2.56,2.56,0,0,1,2.45.29,2.27,2.27,0,0,1,1,2A1.11,1.11,0,0,1,47.36,32.35Z" transform="translate(-0.85 -0.63)"/><path class="cls-1" d="M33,50.2a4.2,4.2,0,0,0,1.32,8.29h0A4.19,4.19,0,0,0,33,50.21ZM35.94,56a2.77,2.77,0,1,1-2.68-4.36,3.08,3.08,0,0,1,.43,0A2.76,2.76,0,0,1,35.91,56Z" transform="translate(-0.85 -0.63)"/><path class="cls-1" d="M31.79,38.32a.73.73,0,0,0-1-.08.63.63,0,0,0-.2.28L28.65,43.2A4,4,0,0,0,29.12,47a3.69,3.69,0,0,0,3,1.59h.2a3,3,0,0,0,.43,0,1.58,1.58,0,0,0,.42-.09A3.71,3.71,0,0,0,35.81,46a4,4,0,0,0-.73-3.79Zm2.64,7.23a2.26,2.26,0,0,1-1.59,1.55,1.57,1.57,0,0,0-.28.06h-.28a2.27,2.27,0,0,1-2-1A2.58,2.58,0,0,1,30,43.74l1.44-3.61,2.49,2.95a2.53,2.53,0,0,1,.5,2.46Z" transform="translate(-0.85 -0.63)"/></svg>