<?xml version="1.0" encoding="utf-8"?>
<!-- Generator: Adobe Illustrator 25.2.1, SVG Export Plug-In . SVG Version: 6.00 Build 0)  -->
<svg version="1.1" id="Layer_1" xmlns="http://www.w3.org/2000/svg" xmlns:xlink="http://www.w3.org/1999/xlink" x="0px" y="0px"
	 viewBox="0 0 307 301" style="enable-background:new 0 0 307 301;" xml:space="preserve">
<style type="text/css">
	.st0{fill:#2E2AB7;stroke:#FFFFFF;stroke-width:2;stroke-miterlimit:10;}
	.st1{fill:#F8EC20;stroke:#FFFFFF;stroke-width:2;stroke-miterlimit:10;}
	.st2{fill:#FFFFFF;stroke:#FFFFFF;stroke-width:2;stroke-miterlimit:10;}
</style>
<path class="st0" d="M202.4,70.8c-32.7-0.2-65.5-0.6-98.2-0.5c0.1-6.9,0.1-13.9,0.2-20.8c32-10,66.3-9.8,98.2,0.6
	C202.5,56.9,202.5,63.8,202.4,70.8z"/>
<path class="st0" d="M153.4,42.1c16.7,0.2,33.3,2.8,49.2,8c-0.1,6.9-0.1,13.8-0.2,20.8c-32.7-0.2-65.5-0.6-98.2-0.5
	c0.1-6.9,0.1-13.9,0.2-20.8C120.2,44.4,136.7,42,153.4,42.1"/>
<polyline class="st0" points="153.7,221.4 145.7,221.4 145.7,145.2 161.8,145.2 161.8,221.4 153.7,221.4 "/>
<polyline class="st0" points="153.7,145.2 132.4,145.2 132.4,104.3 175.1,104.3 175.1,145.2 153.7,145.2 "/>
<polygon class="st0" points="199.8,117.9 199.9,86 107,84.5 106.8,117.9 "/>
<path class="st1" d="M204.6,86.3c-34.2-1.6-68.4-1.6-102.7,0l-0.6-17c34.7-1.6,69.5-1.6,104.3,0C205.3,75,205,80.6,204.6,86.3z"/>
<path class="st1" d="M153.7,85.1c-17.3,0-34.5,0.4-51.8,1.2l-0.6-17c17.4-0.8,34.8-1.2,52.1-1.2"/>
<path class="st1" d="M153.5,68.1c17.4,0,34.8,0.4,52.1,1.2c-0.3,5.7-0.7,11.3-1,17c-17-0.8-33.9-1.2-50.9-1.2"/>
<path class="st2" d="M80,244.2c5,0.1,10-2,13.9-5.9c6-6,14.4-6,20.3,0c8.2,7.9,19.6,7.9,27.8,0c6-6,14.4-6,20.3,0
	c8.2,7.9,19.6,7.9,27.8,0c6-6,14.4-6,20.4,0c4,3.9,8.9,6,13.9,5.9c1.8,0,3.3-1.9,3.3-4.1c0-2.3-1.5-4.1-3.3-4.1
	c-3.7,0.1-7.3-1.5-10.2-4.4c-8.2-7.9-19.6-7.9-27.8,0c-6,6-14.4,6-20.3,0c-8.2-7.9-19.6-7.9-27.8,0c-6,6-14.4,6-20.3,0
	c-8.2-7.9-19.6-7.9-27.8,0c-2.9,3-6.5,4.5-10.2,4.4c-1.8,0-3.3,1.9-3.3,4.1C76.8,242.3,78.3,244.2,80,244.2
	C80.1,244.2,80.1,244.2,80,244.2L80,244.2z"/>
<path class="st2" d="M81,213c5.1,0.1,10-2,14-6c6-6,14.4-6,20.3,0c8.2,7.9,19.6,7.9,27.8,0c6-6,14.4-6,20.3,0
	c8.2,7.9,19.6,7.9,27.8,0c6-6,14.4-6,20.4,0c4,4,8.9,6.1,14,6c1.8,0,3.3-1.9,3.3-4.1c0-2.3-1.5-4.1-3.3-4.1
	c-3.8,0.2-7.4-1.4-10.3-4.4c-8.2-7.9-19.6-7.9-27.8,0c-6,6-14.4,6-20.3,0c-8.2-7.9-19.6-7.9-27.8,0c-6,6-14.4,6-20.3,0
	c-8.2-7.9-19.6-7.9-27.8,0c-2.9,3-6.6,4.6-10.3,4.4c-1.8,0-3.3,1.9-3.3,4.1C77.7,211.1,79.1,213,81,213z"/>
<path class="st2" d="M226.6,173.5c-3.7,0.1-7.3-1.5-10.2-4.4c-8.2-7.9-19.6-7.9-27.8,0c-6,6-14.4,6-20.3,0c-8.2-7.9-19.6-7.9-27.8,0
	c-6,6-14.4,6-20.3,0c-8.2-7.9-19.6-7.9-27.8,0c-2.9,3-6.5,4.5-10.2,4.4c-1.8,0-3.3,1.9-3.3,4.1c0,2.3,1.5,4.1,3.3,4.1
	c5,0.1,10-2,13.9-5.9c6-6,14.4-6,20.3,0c8.2,7.9,19.6,7.9,27.8,0c6-6,14.4-6,20.3,0c8.2,7.9,19.6,7.9,27.8,0c6-6,14.4-6,20.4,0
	c4,3.9,8.9,6,13.9,5.9c1.8,0,3.3-1.9,3.3-4.1C229.9,175.4,228.5,173.5,226.6,173.5C226.6,173.5,226.6,173.5,226.6,173.5L226.6,173.5
	z"/>
</svg>
