<svg id="Layer_1" data-name="Layer 1" xmlns="http://www.w3.org/2000/svg" viewBox="0 0 105.32 180.34"><defs><style>.cls-1{fill:#2e2ab7;}.cls-1,.cls-2{stroke:#000;stroke-miterlimit:10;}.cls-2{fill:#f8ec20;}</style></defs><path class="cls-1" d="M355,242.83c-32.74-.18-65.5-.62-98.23-.54q.09-10.38.19-20.81a161.12,161.12,0,0,1,98.23.59Q355.12,232.42,355,242.83Z" transform="translate(-253.47 -213.6)"/><path class="cls-1" d="M306,214.11a164.56,164.56,0,0,1,49.21,8q-.09,10.35-.19,20.76c-32.74-.18-65.5-.62-98.23-.54q.09-10.38.19-20.81a157.85,157.85,0,0,1,49-7.37" transform="translate(-253.47 -213.6)"/><polyline class="cls-1" points="52.87 179.84 44.82 179.84 44.82 103.63 60.93 103.63 60.93 179.84 52.87 179.84"/><polyline class="cls-1" points="52.87 103.63 31.55 103.63 31.53 62.74 74.2 62.74 74.22 103.63 52.87 103.63"/><polygon class="cls-1" points="98.95 76.38 99.09 44.41 6.11 42.92 5.98 76.38 98.95 76.38"/><path class="cls-2" d="M357.22,258.37q-51.32-2.42-102.67,0l-.57-17q52.11-2.44,104.27,0Q357.74,249.86,357.22,258.37Z" transform="translate(-253.47 -213.6)"/><path class="cls-2" d="M306.34,257.17q-25.9,0-51.79,1.21l-.57-17q26.06-1.22,52.14-1.22" transform="translate(-253.47 -213.6)"/><path class="cls-2" d="M306.12,240.12q26.07,0,52.13,1.23-.51,8.51-1,17-25.43-1.2-50.88-1.2" transform="translate(-253.47 -213.6)"/></svg>