<svg xmlns="http://www.w3.org/2000/svg" viewBox="0 0 527.98 683.37"><defs><style>.cls-1{fill:#fefefe;}.cls-2{fill:#a3a3a3;}.cls-3{fill:#d1d1d1;}.cls-4{fill:#c3c3c3;}.cls-5{fill:#e7e7e7;}.cls-6{fill:#ddd;}.cls-7{fill:#b4b4b4;}.cls-8{fill:#7a7a7a;}.cls-9{fill:#efefef;}.cls-10{fill:#f6f6f6;}.cls-11{fill:#676767;}.cls-12{fill:#919191;}.cls-13{fill:#7b7b7b;}.cls-14{fill:#686868;}.cls-15{fill:#878787;}.cls-16{fill:#b1b1b1;}.cls-17{fill:#f0f0f0;}.cls-18{fill:#f5f5f5;}</style></defs><g id="Layer_2" data-name="Layer 2"><g id="Layer_1-2" data-name="Layer 1"><path class="cls-1" d="M0,0H528V683.37H0ZM419.12,103.6l.08.12-.12-.09c-.05-.3-.11-.6,0-.11Zm9.11,14.45.7,1,1.93,4.23,3.48,5.9c1.8,3.47,3.91,6.81,5.34,10.43,5.58,14.19,10.95,28.47,16.4,42.72A274.8,274.8,0,0,1,466.6,238.2a205.33,205.33,0,0,1-2.47,52.87c-3.71,20.31-10.88,39.51-20.41,57.71a380.14,380.14,0,0,1-21,35.37c-8.62,12.83-18,25.18-27.52,37.36-10.61,13.55-21.83,26.62-32.65,40q-13.87,17.14-27.41,34.57c-9.8,12.66-19.43,25.45-29,38.28-9.06,12.13-17.95,24.39-26.95,36.57-8.22,11.14-16.68,22.12-24.66,33.43-4.92,7-11.63,9.67-19.7,10.13L225,612.56l-.07-.09.08.07,10.41,11.19,4.61,5.89c1.35,1.52,2.71,3,4.06,4.54l4,4.57,5.07,6,4.63,5.22,3.93,4.59,5.24,5.26a7.74,7.74,0,0,0,.86,1.67c5.41,6.2,12.52,7.14,20,5.78,3.29-.61,7.07-1.9,9.3-4.17,4.6-4.71,8.45-10.2,12.35-15.54,5.69-7.79,11.05-15.8,16.72-23.6,5.55-7.63,11.32-15.1,16.95-22.68,8.37-11.24,16.59-22.59,25.05-33.76q14.25-18.78,28.82-37.32c4.89-6.25,10.06-12.26,15.07-18.41,10.42-12.8,20.94-25.52,31.2-38.45,7-8.83,13.94-17.77,20.39-27,6.63-9.51,12.54-19.52,18.92-29.2,7.72-11.7,13-24.55,18.33-37.42,8.46-20.49,11.7-42,12.61-63.9a133.08,133.08,0,0,0-.66-19.25c-1.3-12.5-2.18-25.14-4.85-37.37-2.93-13.43-7.26-26.61-11.78-39.64-3.19-9.21-7.58-18-11.64-26.9-2.48-5.44-5.16-10.8-8.12-16-1.66-2.92-4.08-5.4-6.16-8.07v-1.3L467.64,164,465,160l-1.31-2.62-1.31-.66-1.33-2.62-1.95-2h0l-1.31-2c0-.22,0-.43,0-.65l-2.59-2-1.32-2-.64-.65-.69-1.29L442,129.88l-6-6.47c-4.33-6.92-10.23-12.44-15.52-18.51l-.76.62,7.61,11.23.87,1.35Zm-240,207.89,3.3,2.41a37.35,37.35,0,0,0-.23-4c-1-5.43-2.3-10.82-3.05-16.28a89.8,89.8,0,0,1,3.91-41.19A111.64,111.64,0,0,1,204.9,241c7.34-11.19,17-19.8,27.86-27,14.6-9.72,31.28-13.47,48.6-13.83a80.34,80.34,0,0,1,28.72,4.51c3,1.06,5.95,2.08,8.93,3.12l.63-.59L318.11,204l-1.32-3.28c-.65-1.31-1.31-2.62-2-3.94l-2-3.93a1.68,1.68,0,0,0-.63,0h0c-.64-1.3-1.27-2.61-1.9-3.91-.84-1.09-1.67-2.19-2.5-3.28l-3.44-4.52-4.7-5.91-7.18-6.6c-6.34-4.71-12.25-10.06-19.72-13-6.25-2.22-12.33-5.29-18.76-6.52-24.73-4.75-48.31-2.14-69.67,12.53a100.79,100.79,0,0,0-20,17.55,96.64,96.64,0,0,0-22.43,50.66A94.14,94.14,0,0,0,147,276.08q4.88,9.89,9.74,19.77l0,0a.79.79,0,0,0,.23.56l5.72,7.48,4,5,4.56,4.19,3.25,3.09,3.34,2.6,3.93,2.65,2.62,1.92,1.31.65Z"/><path class="cls-2" d="M240,629.63c-1.53-2-3.07-3.93-4.61-5.9l5.33-1.45,1.26.17c1.16,1.7,2.3,4.83,3.49,4.85,4,.06,8.68.05,12-1.86,4.27-2.48,8-6.41,11-10.4,7.43-9.72,14.27-19.87,21.48-29.76,6.72-9.21,13.61-18.29,20.42-27.44,7.24-9.72,14.44-19.47,21.72-29.16,3.39-4.52,6.93-8.92,10.37-13.39,6.08-7.89,12.1-15.83,18.23-23.68,2.34-3,4.95-5.78,7.34-8.73q10.89-13.41,21.69-26.88c10.15-12.71,20.61-25.19,30.24-38.28,9.05-12.31,17.29-25.21,25.72-38,7.41-11.21,13-23.37,18.18-35.73a176.69,176.69,0,0,0,14.21-69.1,306.6,306.6,0,0,0-1.4-31.94,189.82,189.82,0,0,0-5.25-29.08c-3.72-13.83-7.88-27.61-13-41-4.27-11.26-10-22-15.34-32.82-1.24-2.53-3.3-4.66-5-7h0c-1.09-2.19-2.17-4.39-3.25-6.58l1.89,0,2,3.22c.44.66.88,1.32,1.31,2l1.38.56.69,2.56,1.17,2.16a8.91,8.91,0,0,0,.49,1.54c3.87,7.57,7.77,15.11,11.64,22.68,8.95,17.56,15.1,36.12,19.95,55.16a246.55,246.55,0,0,1,7.15,47.89,207.11,207.11,0,0,1-1.67,37.79,182,182,0,0,1-12,45.23,256.64,256.64,0,0,1-12.61,26.55c-5.41,9.89-11.19,19.65-17.56,28.95-8.57,12.52-17.75,24.65-26.89,36.78-5.3,7-11,13.74-16.56,20.57-9.8,12-19.68,24-29.45,36q-7.37,9.08-14.46,18.39-14.43,18.9-28.72,37.91c-9.23,12.34-18.3,24.8-27.43,37.2-7.72,10.49-15.59,20.87-23.1,31.51-6.43,9.11-14.72,12.87-25.67,10.28C244.29,631,242.15,630.27,240,629.63Z"/><path class="cls-3" d="M253.14,644.7l-5.07-6a10.28,10.28,0,0,1,2.18.58c11.62,6.18,24.22,2,31.73-9.24,6-9,12.4-17.84,18.78-26.63q12.9-17.76,26.08-35.34c9.42-12.61,18.87-25.21,28.5-37.67,7.62-9.88,15.49-19.58,23.31-29.31,9.12-11.34,18.37-22.58,27.44-34,10.35-13,20.85-25.89,30.76-39.22,7-9.47,13.44-19.44,19.68-29.47A254.54,254.54,0,0,0,471,372.59c7.37-15.64,13.85-31.7,16.68-48.92,1.39-8.44,3-16.92,3.38-25.44.64-16.3.22-32.6-2.36-48.83a262.53,262.53,0,0,0-14.45-54.7c-5.15-13.17-11.63-25.82-17.52-38.71-1-2.14-1.94-4.3-2.91-6.45l1.32.64c.66.88,1.37,1.72,1.95,2.65s.9,1.73,1.34,2.59l2,3.29h0a43.61,43.61,0,0,0,1.68,4.52c2.24,4.47,4.76,8.81,6.87,13.34,9,19.27,16.59,39.12,20.68,60a370.82,370.82,0,0,1,6,42.45A191.62,191.62,0,0,1,480.56,366a355.12,355.12,0,0,1-19.64,38c-11.58,19.41-25.46,37.29-39.47,55-7.61,9.63-15.79,18.81-23.54,28.33-7.37,9.08-14.57,18.32-21.75,27.55q-14.48,18.61-28.81,37.33-7.11,9.27-14.07,18.68c-9.7,13.06-19.28,26.21-29,39.22-8.15,10.85-16.34,21.68-24.85,32.24-4.09,5.06-10.28,5.81-16.34,5.23C259.68,647.19,256.44,645.68,253.14,644.7Z"/><path class="cls-4" d="M453.86,149.54c1,2.15,1.93,4.31,2.91,6.45,5.89,12.89,12.37,25.54,17.52,38.71a262.53,262.53,0,0,1,14.45,54.7c2.58,16.23,3,32.53,2.36,48.83-.33,8.52-2,17-3.38,25.44-2.83,17.22-9.31,33.28-16.68,48.92a254.54,254.54,0,0,1-14.51,25.88c-6.24,10-12.65,20-19.68,29.47-9.91,13.33-20.41,26.22-30.76,39.22-9.07,11.38-18.32,22.62-27.44,34-7.82,9.73-15.69,19.43-23.31,29.31-9.63,12.46-19.08,25.06-28.5,37.67q-13.15,17.6-26.08,35.34C294.38,612.23,288,621,282,630.07c-7.51,11.25-20.11,15.42-31.73,9.24a10.28,10.28,0,0,0-2.18-.58l-4-4.57a20.06,20.06,0,0,1,2.41.81c9.71,4.82,21.83,2.5,28.16-6.16,5.81-8,11.3-16.16,17.06-24.16,4.42-6.16,9-12.18,13.56-18.26,9.58-12.89,19.13-25.8,28.77-38.64,3.85-5.13,7.93-10.08,11.82-15.17,6-7.84,11.76-15.84,17.84-23.59,7.1-9.06,14.43-17.94,21.68-26.89q6-7.47,12.17-14.88c7.31-8.9,14.81-17.64,21.9-26.71,6-7.69,11.6-15.7,17.27-23.65,4-5.57,7.91-11.16,11.56-16.92,7.87-12.41,15.24-25.07,21.13-38.6a230.63,230.63,0,0,0,12.31-35c3.72-14.62,5.18-29.49,5.52-44.47a184.67,184.67,0,0,0-1.27-22.77c-.89-8.72-1.88-17.47-3.58-26.07a241,241,0,0,0-14.15-47.75c-4.68-11-9.92-21.79-15.11-32.58-2.34-4.88-5.15-9.54-7.75-14.3l1.33,0h0L449.3,143h0l1.3,2h0c.42.45.85.89,1.28,1.34h0l2,3.29Z"/><path class="cls-5" d="M261.7,654.51l-3.93-4.59c3.14.79,6.25,1.85,9.44,2.34,7.39,1.14,14.11-.93,19-6.48s8.7-11.67,12.93-17.6c5.46-7.67,10.78-15.44,16.32-23,3.32-4.57,7.05-8.84,10.41-13.39,10.64-14.4,21.13-28.9,31.8-43.28,4.59-6.19,9.45-12.18,14.23-18.23,4.24-5.37,8.54-10.69,12.83-16,6.47-8.05,12.89-16.13,19.45-24.1,7-8.55,14.41-16.84,21.29-25.52,7.41-9.36,14.63-18.88,21.56-28.6s14-19.67,20.13-30.06c6.36-10.86,11.91-22.23,17.21-33.66a149.86,149.86,0,0,0,8.12-22.38,206,206,0,0,0,5.32-25.11,223.86,223.86,0,0,0,2.51-26.86A155.19,155.19,0,0,0,499,273.84c-1.56-12.13-3-24.38-6.08-36.18A439,439,0,0,0,478.81,194c-3.54-9.45-8.71-18.29-13.16-27.4-.85-1.74-1.74-3.48-2.6-5.22h0a25.42,25.42,0,0,1,2.61,2.69c1.82,2.56,3.5,5.2,5.24,7.81l1.33,2.63c.21.44.43.87.65,1.31,3.61,8.26,7.41,16.45,10.76,24.81,3.43,8.56,6.83,17.16,9.48,26a246.84,246.84,0,0,1,7.14,29.06c1.94,11.19,3,22.55,4,33.88a131.3,131.3,0,0,1,0,18.18c-.44,8.23-.78,16.52-2.1,24.63a193.7,193.7,0,0,1-11.38,40,277.26,277.26,0,0,1-26.4,50.07c-8.15,12.43-17.22,24.28-26.17,36.17-6.13,8.15-12.79,15.91-19.17,23.88-4,5-7.84,10.14-11.9,15.09-5.8,7.05-11.92,13.84-17.57,21-8.74,11.06-17.2,22.33-25.77,33.53q-7.41,9.68-14.76,19.38c-6.49,8.57-13,17.12-19.38,25.78-7.07,9.6-14,19.33-21,29-5.55,7.63-11,15.32-16.76,22.81-3.88,5.06-9.27,7.54-15.64,8.22C271.12,657.74,266.49,655.87,261.7,654.51Z"/><path class="cls-6" d="M463.05,161.33c.86,1.74,1.75,3.48,2.6,5.22,4.45,9.11,9.62,17.95,13.16,27.4a439,439,0,0,1,14.13,43.71c3.05,11.8,4.52,24,6.08,36.18a155.19,155.19,0,0,1,1.28,24.08,223.86,223.86,0,0,1-2.51,26.86,206,206,0,0,1-5.32,25.11,149.86,149.86,0,0,1-8.12,22.38c-5.3,11.43-10.85,22.8-17.21,33.66C461.05,416.32,454,426.17,447,436s-14.15,19.24-21.56,28.6c-6.88,8.68-14.24,17-21.29,25.52-6.56,8-13,16.05-19.45,24.1-4.29,5.33-8.59,10.65-12.83,16-4.78,6-9.64,12-14.23,18.23-10.67,14.38-21.16,28.88-31.8,43.28-3.36,4.55-7.09,8.82-10.41,13.39-5.54,7.61-10.86,15.38-16.32,23-4.23,5.93-8.15,12.15-12.93,17.6s-11.59,7.62-19,6.48c-3.19-.49-6.3-1.55-9.44-2.34l-4.63-5.22c3.3,1,6.54,2.49,9.9,2.82,6.06.58,12.25-.17,16.34-5.23,8.51-10.56,16.7-21.39,24.85-32.24,9.77-13,19.35-26.16,29-39.22q7-9.39,14.07-18.68,14.36-18.71,28.81-37.33c7.18-9.23,14.38-18.47,21.75-27.55,7.75-9.52,15.93-18.7,23.54-28.33,14-17.71,27.89-35.59,39.47-55a355.12,355.12,0,0,0,19.64-38,191.62,191.62,0,0,0,15.07-86.91,370.82,370.82,0,0,0-6-42.45c-4.09-20.91-11.66-40.76-20.68-60-2.11-4.53-4.63-8.87-6.87-13.34a43.61,43.61,0,0,1-1.68-4.52Z"/><path class="cls-7" d="M445.35,138.37c2.6,4.76,5.41,9.42,7.75,14.3,5.19,10.79,10.43,21.57,15.11,32.58A241,241,0,0,1,482.36,233c1.7,8.6,2.69,17.35,3.58,26.07a184.67,184.67,0,0,1,1.27,22.77c-.34,15-1.8,29.85-5.52,44.47a230.63,230.63,0,0,1-12.31,35c-5.89,13.53-13.26,26.19-21.13,38.6-3.65,5.76-7.6,11.35-11.56,16.92-5.67,7.95-11.26,16-17.27,23.65-7.09,9.07-14.59,17.81-21.9,26.71q-6.11,7.42-12.17,14.88c-7.25,8.95-14.58,17.83-21.68,26.89-6.08,7.75-11.87,15.75-17.84,23.59-3.89,5.09-8,10-11.82,15.17-9.64,12.84-19.19,25.75-28.77,38.64-4.53,6.08-9.14,12.1-13.56,18.26-5.76,8-11.25,16.2-17.06,24.16-6.33,8.66-18.45,11-28.16,6.16a20.06,20.06,0,0,0-2.41-.81L240,629.63c2.16.64,4.3,1.4,6.49,1.92,11,2.59,19.24-1.17,25.67-10.28,7.51-10.64,15.38-21,23.1-31.51,9.13-12.4,18.2-24.86,27.43-37.2q14.24-19,28.72-37.91,7.11-9.3,14.46-18.39c9.77-12.06,19.65-24,29.45-36,5.56-6.83,11.26-13.55,16.56-20.57,9.14-12.13,18.32-24.26,26.89-36.78,6.37-9.3,12.15-19.06,17.56-28.95a256.64,256.64,0,0,0,12.61-26.55,182,182,0,0,0,12-45.23,207.11,207.11,0,0,0,1.67-37.79,246.55,246.55,0,0,0-7.15-47.89c-4.85-19-11-37.6-19.95-55.16-3.87-7.57-7.77-15.11-11.64-22.68a8.91,8.91,0,0,1-.49-1.54l.09-.09Z"/><path class="cls-8" d="M242,622.45l-1.26-.17-3.3-5.12c8.9.93,15.81-2.82,21-9.65s9.66-14.12,14.68-21c9.26-12.73,18.68-25.33,28.05-38q8.14-11,16.37-21.94c8.35-11.1,16.69-22.21,25.12-33.24,4.87-6.37,9.89-12.63,14.93-18.86s10.32-12.55,15.49-18.82,10.4-12.49,15.51-18.81,10.17-12.41,14.9-18.87c9.61-13.12,19.23-26.26,28.37-39.7a198,198,0,0,0,14.58-24.71c7.26-15,13.9-30.23,17.73-46.58a198.34,198.34,0,0,0,5.42-40.24c.19-7.72-.15-15.47-.65-23.19a166.87,166.87,0,0,0-2.25-20.35c-2.21-11.72-4.92-23.34-7.62-35-.48-2.08-1.93-3.92-2.93-5.88-5.45-14.25-10.82-28.53-16.4-42.72-1.43-3.62-3.54-7-5.34-10.43l3.79,3.93h0c1.8,3.83,3.62,7.65,5.39,11.48,3.48,7.5,7.16,14.92,10.36,22.54,6.92,16.48,12.34,33.48,15.23,51.12a408.87,408.87,0,0,1,4.88,41c.61,9.71-.22,19.59-1.24,29.31a161,161,0,0,1-9.92,42c-4.12,10.52-9.07,20.73-14,30.91-7.46,15.39-17.34,29.32-27,43.35-3.94,5.72-8.23,11.21-12.49,16.7q-8.19,10.56-16.59,20.93c-3.21,4-6.66,7.75-9.87,11.71-6.49,8-12.89,16.06-19.35,24.08-6.74,8.37-13.67,16.6-20.26,25.11-7.83,10.11-15.37,20.44-23,30.67-5.52,7.38-11.08,14.73-16.55,22.14q-12.27,16.62-24.43,33.33c-4.34,6-8.71,11.9-12.83,18C260.5,616.23,253.23,622.55,242,622.45Z"/><path class="cls-9" d="M261.7,654.51c4.79,1.36,9.42,3.23,14.62,2.68,6.37-.68,11.76-3.16,15.64-8.22,5.74-7.49,11.21-15.18,16.76-22.81,7-9.64,13.92-19.37,21-29,6.38-8.66,12.89-17.21,19.38-25.78q7.34-9.72,14.76-19.38c8.57-11.2,17-22.47,25.77-33.53,5.65-7.16,11.77-13.95,17.57-21,4.06-4.95,7.9-10.09,11.9-15.09,6.38-8,13-15.73,19.17-23.88,8.95-11.89,18-23.74,26.17-36.17a277.26,277.26,0,0,0,26.4-50.07,193.7,193.7,0,0,0,11.38-40c1.32-8.11,1.66-16.4,2.1-24.63a131.3,131.3,0,0,0,0-18.18c-1-11.33-2.06-22.69-4-33.88a246.84,246.84,0,0,0-7.14-29.06c-2.65-8.81-6.05-17.41-9.48-26-3.35-8.36-7.15-16.55-10.76-24.81a27.19,27.19,0,0,1,2.78,3.87c3.56,7.28,7.15,14.56,10.44,22,2.28,5.13,4.13,10.46,6.1,15.73s3.74,10.32,5.6,15.48l.65,1.31.66,3.93,1.31,3.28v1.31l.66,1.32v1.31c.22.44.44.87.65,1.31l.66,3.93,1.31,4.6v1.31l.66,2v2c.22.66.44,1.31.65,2V263l.66,2.62v2c.22.65.44,1.31.65,2,0,.66,0,1.32,0,2,.21.88.43,1.75.65,2.62v3.28l.66,1.32a33.45,33.45,0,0,0-.37,5c.15,2.07.67,4.12,1,6.17-.72,1.87-1.77,3.78.66,5.25v19c-2.52,1.79-2.76,4-.66,5.9L507,333.81c-.22.88-.44,1.75-.65,2.63v1.31l-.65,2.62v1.31l-.66,2.63V345l-.65,2.63v1.31a13.5,13.5,0,0,0-2,2.94q-4.15,12.21-8.11,24.5c-.49,1.52-.72,3.13-1.07,4.69v1.32c-.55.44-1.32.78-1.62,1.35q-3.92,7.64-7.66,15.34c-.21.44.05,1.11.1,1.67l-.66,2-2,3.27a39.6,39.6,0,0,0-4,5.17c-1.9,3.42-3.45,7-5.14,10.58V423l-1.31.65-5.25,7.87v.66c-2.59,1.14-4.43,2.87-4.59,5.9l-2,4.59-6.56,8.53h0l-2,3.28-.65.65-1.31,2h0c-.44.65-.88,1.31-1.31,2l-.66.65-1.31,2q-5.91,7.21-11.81,14.42l-2,2-.66.65Q420.1,491.88,409.27,505L408,507l-8.52,11.15h0l-2,2-1.31,1.31-2,2.62-.66.66-2.62,2.62-.66,1.31q-2.61,3.95-5.24,7.87h0L379.75,543l-.65.66a13.33,13.33,0,0,0-2.66,2.12c-6.51,8.67-12.95,17.39-19.41,26.1l-19.91,26.87h0c-4.57,6-9.24,11.9-13.68,18-3,4.16-5.76,8.55-8.62,12.84h0c-3.23,4-6.59,7.87-9.66,12-3.47,4.65-6.69,9.49-10,14.25l-2,2L284,661.73,282,663l-7.87-.65-7.22-2.62Z"/><path class="cls-10" d="M408,507l1.32-2c.94-.35,2.21-.43,2.79-1.11q9.4-11,18.56-22.16c.52-.64.21-2,.29-3l.66-.65c2.56,1.24,1.8-.83,2-2q5.91-7.2,11.81-14.42l1.31-2,.66-.65c.43-.66.87-1.32,1.31-2h0l1.31-2,.65-.65,2-3.28h0c.63-.13,1.53,0,1.84-.41,1.74-2.18,3.38-4.45,5-6.75.19-.28-.15-.91-.24-1.37l2-4.59,1.31-.66,3.28-3.93v-.66c1.33-.06,2.73-.07,1.31-2l.66-1.32c2.12-.05,5.1-4.3,4.59-6.55V421.7h.66l2-1.31v-1.31q2.29-3.93,4.6-7.87c.65-1.09,1.31-2.18,2-3.28l1.31-2.62.66-1.31c1.88-.27,3.53-3.26,3.28-5.91.43-1.09.87-2.18,1.31-3.28,2-.11,2.09-1.14,1.31-2.62l.66-1.31a10,10,0,0,0,2-2.25c1.7-3.75,3.45-7.5,4.79-11.39,3.1-9,6.58-17.85,8.76-27,2.27-9.59,3.26-19.49,4.62-29.28.18-1.3-.77-2.76-1.19-4.15V295.12l-.66-5.25c-.35-2.05-.87-4.1-1-6.17a33.45,33.45,0,0,1,.37-5l-.66-1.32v-3.28l-.65-2.62c0-.65,0-1.31,0-2-.21-.65-.43-1.31-.65-2v-2L505,263v-.66c-.21-.66-.43-1.31-.65-2v-2l-.66-2v-1.31l-1.31-4.6-.66-3.93c-.21-.44-.43-.87-.65-1.31V244l-.66-1.32v-1.31c-.43-1.09-.87-2.18-1.31-3.28l-.66-3.93-.65-1.31c-1.86-5.16-3.68-10.34-5.6-15.48s-3.82-10.6-6.1-15.73c-3.29-7.42-6.88-14.7-10.44-22a27.19,27.19,0,0,0-2.78-3.87c-.22-.44-.44-.87-.65-1.31l-.66-2.62c-.44-1.1-.88-2.19-1.31-3.29,2.08,2.67,4.5,5.15,6.16,8.07,3,5.18,5.64,10.54,8.12,16,4.06,8.89,8.45,17.69,11.64,26.9,4.52,13,8.85,26.21,11.78,39.64,2.67,12.23,3.55,24.87,4.85,37.37a133.08,133.08,0,0,1,.66,19.25c-.91,21.92-4.15,43.41-12.61,63.9-5.32,12.87-10.61,25.72-18.33,37.42-6.38,9.68-12.29,19.69-18.92,29.2-6.45,9.25-13.38,18.19-20.39,27C433,486.22,422.45,498.94,412,511.74c-5,6.15-10.18,12.16-15.07,18.41q-14.54,18.55-28.82,37.32c-8.46,11.17-16.68,22.52-25.05,33.76-5.63,7.58-11.4,15-16.95,22.68-5.67,7.8-11,15.81-16.72,23.6-3.9,5.34-7.75,10.83-12.35,15.54-2.23,2.27-6,3.56-9.3,4.17-7.45,1.36-14.56.42-20-5.78a7.74,7.74,0,0,1-.86-1.67l7.22,2.62c2.13,3.4,5.06,2,7.87,1.3h2a33.41,33.41,0,0,0,5.66-2.26c1.39-.86,2.37-2.4,3.53-3.64l2-2c1.07-.59,2.47-.94,3.14-1.83q6.59-8.75,12.87-17.73a69.39,69.39,0,0,0,3.67-6.67h0c1-.74,2.3-1.29,3-2.26,5.87-7.9,11.7-15.85,17.41-23.87.94-1.34,1.26-3.12,1.87-4.69h0a9.3,9.3,0,0,0,2.55-1.6q8.77-11.29,17.4-22.69c4.65-6.12,9.34-12.2,13.84-18.42,2.9-4,5.47-8.25,8.19-12.38l.65-.66,5.25-6.56h0c2.89-1.86,4.87-4.32,5.24-7.87l.66-1.31c1.52-.23,4.09.59,2.62-2.62l.66-.66c1.66-.12,3.44-.15,2-2.62l1.31-1.31c.65-.66,1.31-1.31,2-2h0q4.5-5.19,9-10.4C408.46,507.63,408.11,507.21,408,507Z"/><path class="cls-11" d="M456.08,182.35c1,2,2.45,3.8,2.93,5.88,2.7,11.62,5.41,23.24,7.62,35a166.87,166.87,0,0,1,2.25,20.35c.5,7.72.84,15.47.65,23.19A198.34,198.34,0,0,1,464.11,307c-3.83,16.35-10.47,31.61-17.73,46.58a198,198,0,0,1-14.58,24.71C422.66,391.7,413,404.84,403.43,418c-4.73,6.46-9.86,12.64-14.9,18.87S378.19,449.37,373,455.64s-10.39,12.5-15.49,18.82S347.47,487,342.6,493.32c-8.43,11-16.77,22.14-25.12,33.24q-8.22,10.94-16.37,21.94c-9.37,12.64-18.79,25.24-28.05,38-5,6.92-9.52,14.22-14.68,21s-12.07,10.58-21,9.65l-2.61-2.66c8.07-.46,14.78-3.15,19.7-10.13,8-11.31,16.44-22.29,24.66-33.43,9-12.18,17.89-24.44,26.95-36.57,9.59-12.83,19.22-25.62,29-38.28q13.5-17.44,27.41-34.57c10.82-13.39,22-26.46,32.65-40,9.53-12.18,18.9-24.53,27.52-37.36a380.14,380.14,0,0,0,21-35.37c9.53-18.2,16.7-37.4,20.41-57.71a205.33,205.33,0,0,0,2.47-52.87A274.8,274.8,0,0,0,456.08,182.35Z"/><path class="cls-12" d="M292.53,168.54l7.18,6.6a11.55,11.55,0,0,1-2.8-.64c-1.64-.84-3.14-2-4.76-2.84A95.12,95.12,0,0,0,255,160.48a92.37,92.37,0,0,0-33.19,2.94,88.42,88.42,0,0,0-33,17,97.85,97.85,0,0,0-29.45,40A95,95,0,0,0,152.69,266a109.78,109.78,0,0,0,7.06,30c1,2.6,1.92,5.26,2.87,7.89l-5.72-7.48a1.91,1.91,0,0,0,.17-.22,4.23,4.23,0,0,0-.4-.34l0,0a36.62,36.62,0,0,0-1.3-4.67c-5.59-13.36-7.55-27.44-7.7-41.74a77.17,77.17,0,0,1,2-17.1c4.84-22.45,16.1-41.2,33.37-56.32,9.41-8.24,20.77-13.09,32.19-17.54,8.86-3.46,18.49-4.2,27.9-4.08,11,.14,22.06,1.45,32.21,6.55,5.05,2.55,10.17,5,15.28,7.38A6,6,0,0,0,292.53,168.54Z"/><path class="cls-3" d="M310.35,188.85c.63,1.3,1.26,2.61,1.9,3.91-1.21-.46-2.45-.87-3.63-1.41-4.06-1.86-8-4.15-12.18-5.6a97.76,97.76,0,0,0-54.61-3c-16.71,3.8-30.84,12.35-43,24.17a101.07,101.07,0,0,0-28.79,60.69c-1.06,12.82-.22,25.68,3.68,38.14,1.35,4.33,2.67,8.68,4,13l-3.34-2.61c.15-.36.54-.83.43-1.08a104.58,104.58,0,0,1-9.08-34.41,98.24,98.24,0,0,1,2-30.39,99.57,99.57,0,0,1,14-32.84A96.4,96.4,0,0,1,203,194.35a95,95,0,0,1,17.84-10.68c10.67-5.18,22-8.67,33.92-9.16,10.31-.42,20.62,0,30.37,4,7.44,3,14.76,6.37,22.15,9.52A22.72,22.72,0,0,0,310.35,188.85Z"/><path class="cls-7" d="M171.16,313.07l-4.56-4.19a8,8,0,0,0,0-2.59c-.76-2-1.75-4-2.61-6-6.54-15.27-8.23-31.37-7-47.69,1-13.69,5.4-26.63,12-38.66a97.93,97.93,0,0,1,38.26-38.33c13.19-7.47,27.83-10.52,42.91-10.91a84.88,84.88,0,0,1,16.22,1.3c11.85,2,23.26,5.44,33.12,12.8,1.43,1.06,3.3,1.51,5,2.25,1.14,1.51,2.29,3,3.44,4.52a18.61,18.61,0,0,1-2.08-.8c-6.15-3.17-12.1-6.85-18.49-9.47-11.22-4.59-23.11-5.91-35.19-5.44a86.08,86.08,0,0,0-36.27,9c-12.72,6.47-23.73,14.7-32.72,25.84a97.86,97.86,0,0,0-15.86,27.59,94,94,0,0,0-6.07,38.22,110.45,110.45,0,0,0,5.2,29.38C167.86,304.34,169.55,308.69,171.16,313.07Z"/><path class="cls-2" d="M304.41,181.05c-1.67-.74-3.54-1.19-5-2.25-9.86-7.36-21.27-10.76-33.12-12.8a84.88,84.88,0,0,0-16.22-1.3c-15.08.39-29.72,3.44-42.91,10.91a97.93,97.93,0,0,0-38.26,38.33c-6.63,12-11,25-12,38.66-1.19,16.32.5,32.42,7,47.69.86,2,1.85,4,2.61,6a8,8,0,0,1,0,2.59l-4-5c-1-2.63-1.83-5.29-2.87-7.89a109.78,109.78,0,0,1-7.06-30,95,95,0,0,1,6.63-45.61,97.85,97.85,0,0,1,29.45-40,88.42,88.42,0,0,1,33-17A92.37,92.37,0,0,1,255,160.48a95.12,95.12,0,0,1,37.16,11.18c1.62.88,3.12,2,4.76,2.84a11.55,11.55,0,0,0,2.8.64Z"/><path class="cls-13" d="M292.53,168.54a6,6,0,0,1-1.88-.21c-5.11-2.42-10.23-4.83-15.28-7.38-10.15-5.1-21.18-6.41-32.21-6.55-9.41-.12-19,.62-27.9,4.08-11.42,4.45-22.78,9.3-32.19,17.54-17.27,15.12-28.53,33.87-33.37,56.32a77.17,77.17,0,0,0-2,17.1c.15,14.3,2.11,28.38,7.7,41.74a36.62,36.62,0,0,1,1.3,4.67Q151.85,286,147,276.08a4.07,4.07,0,0,0,.18-1.44A103.12,103.12,0,0,1,145,229.79a96.59,96.59,0,0,1,30-55.17c6.81-6.34,15.11-11.33,23.31-15.89,11.79-6.56,25-8.72,38.33-9.11A88.91,88.91,0,0,1,269.52,155a16.11,16.11,0,0,0,3.29.47C280.28,158.48,286.19,163.83,292.53,168.54Z"/><path class="cls-4" d="M171.16,313.07c-1.61-4.38-3.3-8.73-4.79-13.16a110.45,110.45,0,0,1-5.2-29.38,94,94,0,0,1,6.07-38.22,97.86,97.86,0,0,1,15.86-27.59c9-11.14,20-19.37,32.72-25.84a86.08,86.08,0,0,1,36.27-9c12.08-.47,24,.85,35.19,5.44,6.39,2.62,12.34,6.3,18.49,9.47a18.61,18.61,0,0,0,2.08.8c.83,1.09,1.66,2.19,2.5,3.28a22.72,22.72,0,0,1-3.09-.85c-7.39-3.15-14.71-6.48-22.15-9.52-9.75-4-20.06-4.39-30.37-4-12,.49-23.25,4-33.92,9.16A95,95,0,0,0,203,194.35a96.4,96.4,0,0,0-21.25,23.08,99.57,99.57,0,0,0-14,32.84,98.24,98.24,0,0,0-2,30.39,104.58,104.58,0,0,0,9.08,34.41c.11.25-.28.72-.43,1.08Q172.77,314.62,171.16,313.07Z"/><path class="cls-6" d="M177.75,318.76c-1.33-4.35-2.65-8.7-4-13-3.9-12.46-4.74-25.32-3.68-38.14a101.07,101.07,0,0,1,28.79-60.69c12.13-11.82,26.26-20.37,43-24.17a97.76,97.76,0,0,1,54.61,3c4.21,1.45,8.12,3.74,12.18,5.6,1.18.54,2.42,1,3.63,1.41h0l.63,0,2,3.93c-1.28-.63-2.51-1.37-3.83-1.89-5.05-2-10.05-4.19-15.22-5.84-16.12-5.16-32.5-5.41-48.91-1.56A85.76,85.76,0,0,0,221.4,198,97.7,97.7,0,0,0,176,262.75a98.34,98.34,0,0,0-.19,37c1.36,7.34,3.88,14.45,5.89,21.67Z"/><path class="cls-5" d="M181.68,321.41c-2-7.22-4.53-14.33-5.89-21.67a98.34,98.34,0,0,1,.19-37A97.7,97.7,0,0,1,221.4,198a85.76,85.76,0,0,1,25.47-10.5c16.41-3.85,32.79-3.6,48.91,1.56,5.17,1.65,10.17,3.84,15.22,5.84,1.32.52,2.55,1.26,3.83,1.89.65,1.32,1.31,2.63,2,3.94a10.27,10.27,0,0,1-1.55-.47c-4.34-2-8.5-4.54-13-5.9-12.12-3.65-24.44-5.77-37.27-4.22-9.42,1.14-18.57,2.74-27.28,6.8s-17.18,8.2-24.3,14.53c-13.73,12.22-24.29,26.69-29.82,44.46-3.94,12.66-6,25.46-4.64,38.85.93,9.36,2.2,18.5,5.88,27.2.14.34-.31.93-.48,1.4Z"/><path class="cls-9" d="M184.3,323.33c.17-.47.62-1.06.48-1.4-3.68-8.7-4.95-17.84-5.88-27.2-1.33-13.39.7-26.19,4.64-38.85,5.53-17.77,16.09-32.24,29.82-44.46,7.12-6.33,15.66-10.51,24.3-14.53s17.86-5.66,27.28-6.8c12.83-1.55,25.15.57,37.27,4.22,4.53,1.36,8.69,3.91,13,5.9a10.27,10.27,0,0,0,1.55.47l1.32,3.28c-4.81-1.64-9.56-3.51-14.45-4.85-6.11-1.68-12.28-3.55-18.55-4.19-11.85-1.21-23.41.81-34.84,4.31-13.39,4.1-25.41,10.24-35.14,20.47l-8.53,7.22a10,10,0,0,0-2.63,1.72c-1.53,2-2.77,4.12-4.25,6.12a88.61,88.61,0,0,0-15,32.76,5.8,5.8,0,0,0,.28,2l-.66,5.91-.65,2V280c-2.42,1.15-2.54,1.76-.65,3.28V298.4l-.65,3.28q.65,2.63,1.31,5.25l.65,2v2.63l.66,1.31v1.31c.22.65.43,1.31.65,2l1.31,3.28c0,.65,0,1.31,0,2L185.61,324Z"/><path class="cls-10" d="M215.13,219.7c9.73-10.23,21.75-16.37,35.14-20.47,11.43-3.5,23-5.52,34.84-4.31,6.27.64,12.44,2.51,18.55,4.19,4.89,1.34,9.64,3.21,14.45,4.85l1.53,3.23-.63.59c-3-1-6-2.06-8.93-3.12a80.34,80.34,0,0,0-28.72-4.51c-17.32.36-34,4.11-48.6,13.83-10.86,7.23-20.52,15.84-27.86,27a111.64,111.64,0,0,0-12.74,25.86,89.8,89.8,0,0,0-3.91,41.19c.75,5.46,2.05,10.85,3.05,16.28a37.35,37.35,0,0,1,.23,4l-3.3-2.41c-.43-1.53-.87-3.06-1.3-4.59,0-.65,0-1.31,0-2,.15-.16.44-.34.42-.47q-1.5-8.62-3-17.24v-2.62c-.44-1.53-.87-3.06-1.31-4.6V286.6l1.31-2V282l.66-3.27v-1.32c1.09-4.33,2.25-8.64,3.25-13a47.57,47.57,0,0,0,.68-5.36v-.66c2.9-.62,2.59-3.24,3.28-5.24v-.66l1.31-3.28.66-2.62c1.33-.06,2.72-.08,1.31-2l.66-1.31a17.39,17.39,0,0,0,3.18-2.54c3.87-5,7.62-10,11.39-15C212.18,223.73,213.65,221.71,215.13,219.7Z"/><path class="cls-14" d="M272.81,155.51a16.11,16.11,0,0,1-3.29-.47,88.91,88.91,0,0,0-32.92-5.42c-13.34.39-26.54,2.55-38.33,9.11-8.2,4.56-16.5,9.55-23.31,15.89a96.59,96.59,0,0,0-30,55.17,103.12,103.12,0,0,0,2.17,44.85,4.07,4.07,0,0,1-.18,1.44,94.14,94.14,0,0,1-5.07-46.35,96.64,96.64,0,0,1,22.43-50.66,100.79,100.79,0,0,1,20-17.55c21.36-14.67,44.94-17.28,69.67-12.53C260.48,150.22,266.56,153.29,272.81,155.51Z"/><path class="cls-15" d="M234.8,614.5l2.61,2.66,3.3,5.12-5.33,1.45L225,612.54v0Z"/><path class="cls-16" d="M436.76,126.6l-1.88,0-4-3.25-1.93-4.23-.7-1,0,0-.87-1.35-7.61-11.23.76-.62c5.29,6.07,11.19,11.59,15.52,18.51Z"/><path class="cls-5" d="M442.19,134.92l-.69-2.56.54-2.48,10.51,13.75v2.61h-.65c-.43-.45-.86-.89-1.28-1.34h0l-1.3-2h0l-2.62-4.59h0l-3.26-3.42Z"/><path class="cls-5" d="M463.05,161.33l-2.62-2.62h0l-2-3.29c-.44-.86-.82-1.77-1.34-2.59s-1.29-1.77-1.95-2.65c0-.22,0-.45,0-.67l2.59,0c0,.22,0,.43,0,.65l1.31,2h0l1.95,2,1.33,2.62.66,4.58Z"/><path class="cls-17" d="M463.06,161.32l-.66-4.58,1.31.66L465,160l2.62,3.93,2.62,3.29c0,.43,0,.87,0,1.3.43,1.1.87,2.19,1.31,3.29h-.67c-1.74-2.61-3.42-5.25-5.24-7.81A25.42,25.42,0,0,0,463.06,161.32Z"/><path class="cls-3" d="M442,129.88l-.54,2.48-1.38-.56-1.31-2-2-3.22c-.24-1.07-.47-2.13-.7-3.19Z"/><path class="cls-12" d="M430.86,123.3l4,3.25c1.08,2.19,2.16,4.39,3.25,6.58l-3.79-3.93Z"/><path class="cls-6" d="M455.2,149.51c0,.22,0,.45,0,.67l-1.32-.64h0c-.43-1.1-.86-2.2-1.3-3.3v-2.61l.69,1.29c.21.22.42.44.64.65l1.32,2Z"/><path class="cls-17" d="M186.93,321.35c.43,1.53.87,3.06,1.3,4.59l-2.62-2Z"/><path class="cls-10" d="M470.26,167.24,467.64,164Z"/><path class="cls-17" d="M455.2,149.51v-2l2.59,2Z"/><path class="cls-10" d="M465,160l-1.31-2.62Z"/><path class="cls-17" d="M461.07,154.12l-1.95-2Z"/><path class="cls-17" d="M459.12,152.15l-1.31-2Z"/><path class="cls-12" d="M427.4,116.75l.87,1.35Z"/><path class="cls-16" d="M419.12,103.6l-.06-.08c-.09-.49,0-.19,0,.11Z"/><path class="cls-3" d="M312.85,192.81l-.63,0A1.68,1.68,0,0,1,312.85,192.81Z"/><path class="cls-17" d="M453.88,145.57c-.22-.21-.43-.43-.64-.65C453.45,145.14,453.66,145.36,453.88,145.57Z"/><path class="cls-12" d="M428.23,118.05l.7,1Z"/><polygon class="cls-15" points="224.97 612.54 224.88 612.47 224.96 612.56 224.97 612.54"/><path class="cls-16" d="M419.08,103.63l.12.09-.08-.12Z"/><path class="cls-13" d="M156.67,295.81a4.23,4.23,0,0,1,.4.34,1.91,1.91,0,0,1-.17.22A.79.79,0,0,1,156.67,295.81Z"/><path class="cls-12" d="M242,622.45c11.26.1,18.53-6.22,24.44-15,4.12-6.1,8.49-12,12.83-18q12.17-16.71,24.43-33.33c5.47-7.41,11-14.76,16.55-22.14,7.67-10.23,15.21-20.56,23-30.67,6.59-8.51,13.52-16.74,20.26-25.11,6.46-8,12.86-16.09,19.35-24.08,3.21-4,6.66-7.74,9.87-11.71q8.38-10.4,16.59-20.93c4.26-5.49,8.55-11,12.49-16.7,9.67-14,19.55-28,27-43.35,4.93-10.18,9.88-20.39,14-30.91a161,161,0,0,0,9.92-42c1-9.72,1.85-19.6,1.24-29.31a408.87,408.87,0,0,0-4.88-41c-2.89-17.64-8.31-34.64-15.23-51.12-3.2-7.62-6.88-15-10.36-22.54-1.77-3.83-3.59-7.65-5.39-11.48,1.68,2.31,3.74,4.44,5,7,5.3,10.85,11.07,21.56,15.34,32.82,5.08,13.38,9.24,27.16,13,41A189.82,189.82,0,0,1,476.66,243a306.6,306.6,0,0,1,1.4,31.94A176.69,176.69,0,0,1,463.85,344c-5.2,12.36-10.77,24.52-18.18,35.73-8.43,12.75-16.67,25.65-25.72,38-9.63,13.09-20.09,25.57-30.24,38.28Q378.94,469.5,368,482.88c-2.39,2.95-5,5.73-7.34,8.73-6.13,7.85-12.15,15.79-18.23,23.68-3.44,4.47-7,8.87-10.37,13.39-7.28,9.69-14.48,19.44-21.72,29.16-6.81,9.15-13.7,18.23-20.42,27.44-7.21,9.89-14.05,20-21.48,29.76-3.06,4-6.75,7.92-11,10.4-3.3,1.91-7.95,1.92-12,1.86C244.27,627.28,243.13,624.15,242,622.45Z"/><path class="cls-7" d="M438.81,129.82l1.31,2C439.69,131.14,439.25,130.48,438.81,129.82Z"/><path class="cls-7" d="M442.19,134.92h1.23l0,2.06-.09.09Z"/><path class="cls-6" d="M458.47,155.42l2,3.29Z"/><path class="cls-3" d="M443.45,137l0-2.06,3.26,3.42-1.33,0Z"/><path class="cls-3" d="M446.68,138.36,449.3,143Z"/><path class="cls-3" d="M452.55,146.24c.44,1.1.87,2.2,1.3,3.3l-2-3.29Z"/><path class="cls-3" d="M449.31,143l1.3,2Z"/><path class="cls-3" d="M450.62,144.91l1.28,1.34C451.47,145.8,451,145.36,450.62,144.91Z"/><path class="cls-9" d="M470.91,171.82h.67l.66,2.62Z"/><path class="cls-10" d="M509,316.76c.42,1.39,1.37,2.85,1.19,4.15-1.36,9.79-2.35,19.69-4.62,29.28-2.18,9.19-5.66,18.08-8.76,27-1.34,3.89-3.09,7.64-4.79,11.39a10,10,0,0,1-2,2.25q1.63-4.26,3.28-8.52V381c5.69-10,8.22-21.15,11.15-32.13v-1.31L505,345v-.65l.66-2.63v-1.31l.65-2.62v-1.31l.65-2.63L508.3,320Z"/><path class="cls-10" d="M379.1,543.68c-2.72,4.13-5.29,8.37-8.19,12.38-4.5,6.22-9.19,12.3-13.84,18.42q-8.65,11.37-17.4,22.69a9.3,9.3,0,0,1-2.55,1.6L357,571.9c6.46-8.71,12.9-17.43,19.41-26.1A13.33,13.33,0,0,1,379.1,543.68Z"/><path class="cls-10" d="M337.12,598.77c-.61,1.57-.93,3.35-1.87,4.69-5.71,8-11.54,16-17.41,23.87-.72,1-2,1.52-3,2.26,2.86-4.29,5.58-8.68,8.62-12.84C327.88,610.67,332.55,604.75,337.12,598.77Z"/><path class="cls-10" d="M430.91,478.75c-.08,1,.23,2.32-.29,3q-9.15,11.19-18.56,22.16c-.58.68-1.85.76-2.79,1.11Q420.09,491.87,430.91,478.75Z"/><path class="cls-10" d="M314.82,629.59a69.39,69.39,0,0,1-3.67,6.67q-6.27,9-12.87,17.73c-.67.89-2.07,1.24-3.14,1.83,3.33-4.76,6.55-9.6,10-14.25C308.23,637.46,311.59,633.58,314.82,629.59Z"/><path class="cls-17" d="M504.37,348.9c-2.93,11-5.46,22.11-11.15,32.13.35-1.56.58-3.17,1.07-4.69q4-12.27,8.11-24.5A13.5,13.5,0,0,1,504.37,348.9Z"/><path class="cls-17" d="M493.22,382.35q-1.65,4.26-3.28,8.52l-.66,1.31L488,394.8c-.44,1.1-.88,2.19-1.31,3.28L484,400.71c-.05-.56-.31-1.23-.1-1.67q3.75-7.71,7.66-15.34C491.9,383.13,492.67,382.79,493.22,382.35Z"/><path class="cls-17" d="M474.85,419.07v1.31l-2,1.31h-.66c1.69-3.54,3.24-7.16,5.14-10.58a39.6,39.6,0,0,1,4-5.17v2c-.65,1.1-1.31,2.19-2,3.28Q477.14,415.13,474.85,419.07Z"/><path class="cls-10" d="M408,507c.16.26.51.68.46.75q-4.47,5.22-9,10.4Z"/><path class="cls-10" d="M293.18,657.79c-1.16,1.24-2.14,2.78-3.53,3.64a33.41,33.41,0,0,1-5.66,2.26v-2Z"/><path class="cls-10" d="M459.11,442.68c.09.46.43,1.09.24,1.37-1.58,2.3-3.22,4.57-5,6.75-.31.38-1.21.28-1.84.41Z"/><path class="cls-10" d="M390.24,528.59c-.37,3.55-2.35,6-5.24,7.87Q387.63,532.53,390.24,528.59Z"/><path class="cls-10" d="M472.23,423c.51,2.25-2.47,6.5-4.59,6.55l3.28-5.9Z"/><path class="cls-10" d="M484,400.71l2.62-2.63c.25,2.65-1.4,5.64-3.28,5.91v-1.31Z"/><path class="cls-17" d="M470.92,423.66l-3.28,5.9-.66,1.32-1.31.65Z"/><path class="cls-10" d="M282,663.69c-2.81.67-5.74,2.1-7.87-1.3L282,663Z"/><path class="cls-10" d="M385,536.46,379.75,543Z"/><path class="cls-17" d="M509,316.76,508.3,320c-2.1-1.92-1.86-4.11.66-5.9Z"/><path class="cls-17" d="M465.67,432.84v.66l-3.28,3.93-1.31.66c.16-3,2-4.76,4.59-5.9Z"/><path class="cls-17" d="M508.3,289.87l.66,5.25C506.53,293.65,507.58,291.74,508.3,289.87Z"/><path class="cls-17" d="M502.4,250.52l1.31,4.6Z"/><path class="cls-10" d="M396.15,521.38c1.47,2.47-.31,2.5-2,2.62Z"/><path class="cls-10" d="M393.52,524.66c1.47,3.21-1.1,2.39-2.62,2.62Z"/><path class="cls-17" d="M499.12,238.06c.44,1.1.88,2.19,1.31,3.28C500,240.25,499.56,239.16,499.12,238.06Z"/><path class="cls-10" d="M452.55,451.21l-2,3.28Z"/><path class="cls-18" d="M282,663.69V663l2-1.31v2Z"/><path class="cls-17" d="M483.38,402.68V404l-.66,1.31-1.31.65Z"/><path class="cls-10" d="M433.53,476.12c-.16,1.15.6,3.22-2,2Z"/><path class="cls-17" d="M507,333.81l-.65,2.63C506.55,335.56,506.77,334.69,507,333.81Z"/><path class="cls-17" d="M506.33,337.75l-.65,2.62Z"/><path class="cls-17" d="M506.34,271.51l.65,2.62C506.77,273.26,506.55,272.39,506.34,271.51Z"/><path class="cls-10" d="M399.43,518.1c-.66.66-1.32,1.31-2,2C398.11,519.41,398.77,518.76,399.43,518.1Z"/><path class="cls-17" d="M505.68,341.68l-.66,2.63Z"/><path class="cls-17" d="M505,345l-.65,2.63Z"/><path class="cls-17" d="M505,263l.66,2.62Z"/><path class="cls-10" d="M465.67,432.84v-1.31l1.31-.65C468.4,432.77,467,432.78,465.67,432.84Z"/><path class="cls-17" d="M503.71,256.43l.66,2Z"/><path class="cls-17" d="M505.68,267.58c.22.65.44,1.31.65,2C506.12,268.89,505.9,268.23,505.68,267.58Z"/><path class="cls-17" d="M504.37,260.36c.22.66.44,1.31.65,2C504.81,261.67,504.59,261,504.37,260.36Z"/><path class="cls-10" d="M449.93,455.14l-1.31,2Z"/><path class="cls-10" d="M448.62,457.11c-.44.65-.88,1.31-1.31,2C447.74,458.42,448.18,457.76,448.62,457.11Z"/><path class="cls-10" d="M446.65,459.73l-1.31,2Z"/><path class="cls-17" d="M497.81,232.82l.65,1.31Z"/><path class="cls-17" d="M500.43,242.65l.66,1.32Z"/><path class="cls-17" d="M501.09,245.28c.22.44.44.87.65,1.31C501.53,246.15,501.31,245.72,501.09,245.28Z"/><path class="cls-17" d="M507,277.41l.66,1.32Z"/><path class="cls-10" d="M474.85,419.07q2.29-3.93,4.6-7.87Q477.14,415.13,474.85,419.07Z"/><path class="cls-10" d="M462.39,437.43l3.28-3.93Z"/><path class="cls-10" d="M488,394.8l1.31-2.62C490.06,393.66,489.94,394.69,488,394.8Z"/><path class="cls-10" d="M479.45,411.2c.65-1.09,1.31-2.18,2-3.28C480.76,409,480.1,410.11,479.45,411.2Z"/><path class="cls-10" d="M481.41,406l1.31-.65-1.31,2.62Z"/><path class="cls-10" d="M472.89,421.69l2-1.31Z"/><path class="cls-17" d="M188.89,258.39v.66L185,269.54a5.8,5.8,0,0,1-.28-2,88.61,88.61,0,0,1,15-32.76c1.48-2,2.72-4.17,4.25-6.12a10,10,0,0,1,2.63-1.72c-.48.8-.93,1.63-1.44,2.41q-4.51,7-9,14l-.66,1.31-1.31,2-.66,2.62-2,2.63-.66,2Z"/><path class="cls-10" d="M196.11,243.31q4.53-7,9-14c.51-.78,1-1.61,1.44-2.41l8.53-7.22c-1.48,2-2.95,4-4.45,6-3.77,5-7.52,10.08-11.39,15A17.39,17.39,0,0,1,196.11,243.31Z"/><path class="cls-10" d="M185,269.54l3.93-10.49a47.57,47.57,0,0,1-.68,5.36c-1,4.36-2.16,8.67-3.25,13h-.66v-2Z"/><path class="cls-10" d="M184.3,301.68q1.53,8.63,3,17.24c0,.13-.27.31-.42.47-.43-1.1-.87-2.19-1.31-3.28-.22-.66-.43-1.32-.65-2v-1.31l-.66-1.31v-2.63l-.65-2q-.66-2.62-1.31-5.25Z"/><path class="cls-10" d="M183,294.46c.44,1.54.87,3.07,1.31,4.6L183,298.4Z"/><path class="cls-18" d="M183,298.4l1.31.66v2.62h-2C182.55,300.59,182.77,299.49,183,298.4Z"/><path class="cls-17" d="M183,283.32c-1.89-1.52-1.77-2.13.65-3.28v2C183.43,282.44,183.21,282.88,183,283.32Z"/><path class="cls-10" d="M183.64,282v-3.27H185L184.3,282Z"/><path class="cls-18" d="M183.64,282h.66v2.63l-1.31.65v-2C183.21,282.88,183.43,282.44,183.64,282Z"/><path class="cls-17" d="M185,314.14c.22.65.43,1.31.65,2C185.39,315.45,185.18,314.79,185,314.14Z"/><path class="cls-17" d="M183.65,306.93l.65,2C184.08,308.24,183.86,307.58,183.65,306.93Z"/><path class="cls-17" d="M184.3,275.45v2h-.65Z"/><path class="cls-10" d="M183,285.28l1.31-.65-1.31,2Z"/><path class="cls-18" d="M183.65,277.41H185v1.32h-1.31Z"/><path class="cls-17" d="M184.3,311.52l.66,1.31Z"/><path class="cls-10" d="M188.89,258.39l2-4.59,1.31-.65C191.48,255.15,191.79,257.77,188.89,258.39Z"/><path class="cls-10" d="M191.52,251.84l2-2.63c-.44,1.09-.87,2.19-1.31,3.28Z"/><path class="cls-10" d="M194.14,246.59l1.31-2C196.86,246.51,195.47,246.53,194.14,246.59Z"/><path class="cls-18" d="M191.52,251.84l.65.65v.66l-1.31.65Z"/></g></g></svg>