<svg id="Layer_1" data-name="Layer 1" xmlns="http://www.w3.org/2000/svg" viewBox="0 0 100 84.6"><defs><style>.cls-1{fill:#fff;}</style></defs><path class="cls-1" d="M96.3,12.7a.76.76,0,0,1-.5-.2,17.37,17.37,0,0,0-18.6,0,1,1,0,1,1-1.1-1.7,19,19,0,0,1,20.8,0,1,1,0,0,1,.3,1.4A1.05,1.05,0,0,1,96.3,12.7Z" transform="translate(0 -7.7)"/><path class="cls-1" d="M90.5,18.1a.76.76,0,0,1-.5-.2,5.89,5.89,0,0,0-3.4-1,6.74,6.74,0,0,0-3.4,1,1,1,0,1,1-1.1-1.7,8.12,8.12,0,0,1,4.5-1.3,8.74,8.74,0,0,1,4.5,1.3,1,1,0,0,1,.3,1.4A1.19,1.19,0,0,1,90.5,18.1Z" transform="translate(0 -7.7)"/><circle class="cls-1" cx="86.5" cy="14.1" r="1.4"/><path class="cls-1" d="M81.7,82.9H77a1,1,0,0,1,0-2h4.6a3.8,3.8,0,0,0,3.8-3.8V52.8a1,1,0,1,1,2,0V77A5.68,5.68,0,0,1,81.7,82.9Z" transform="translate(0 -7.7)"/><path class="cls-1" d="M86.5,53.7A13.5,13.5,0,1,1,100,40.2,13.51,13.51,0,0,1,86.5,53.7Zm0-25A11.4,11.4,0,1,0,97.9,40.1,11.39,11.39,0,0,0,86.5,28.7Z" transform="translate(0 -7.7)"/><path class="cls-1" d="M92,41.2a1,1,0,0,1-1-1,4.4,4.4,0,0,0-8.8,0,1,1,0,0,1-2,0,6.5,6.5,0,0,1,13,0A1.52,1.52,0,0,1,92,41.2Z" transform="translate(0 -7.7)"/><path class="cls-1" d="M76.7,75.4a1,1,0,0,1-1-1V59.7a1,1,0,0,1,2,0V74.3A1,1,0,0,1,76.7,75.4Z" transform="translate(0 -7.7)"/><path class="cls-1" d="M17,75.4a1,1,0,0,1-1-1V51.5a2.9,2.9,0,0,0-2.9-2.9H4.9A2.9,2.9,0,0,0,2,51.5V74.4a1,1,0,0,1-2,0V51.5a4.91,4.91,0,0,1,4.9-4.9h8.2A4.91,4.91,0,0,1,18,51.5V74.4A1,1,0,0,1,17,75.4Z" transform="translate(0 -7.7)"/><path class="cls-1" d="M13.4,48.6a1,1,0,0,1-1-1V43.2a3.3,3.3,0,1,0-6.6,0v4.4a1,1,0,0,1-2,0V43.2a5.4,5.4,0,1,1,10.8,0v4.4A1.52,1.52,0,0,1,13.4,48.6Z" transform="translate(0 -7.7)"/><path class="cls-1" d="M9,39.6a1,1,0,0,1-1-1V32.8a1,1,0,1,1,2,0v5.8A.94.94,0,0,1,9,39.6Z" transform="translate(0 -7.7)"/><path class="cls-1" d="M30.3,75.4a1,1,0,0,1-1-1v-13l-5.7-5.3-6,5.6a1,1,0,1,1-1.4-1.4L23,54a1,1,0,0,1,1.4,0l6.7,6.2a1.08,1.08,0,0,1,.3.7V74.2A1.13,1.13,0,0,1,30.3,75.4Z" transform="translate(0 -7.7)"/><path class="cls-1" d="M43.7,62a1.08,1.08,0,0,1-.7-.3l-6-5.6-6,5.6a1,1,0,0,1-1.4-1.4l6.7-6.2a1,1,0,0,1,1.4,0l6.7,6.2a1,1,0,0,1,0,1.4A.91.91,0,0,1,43.7,62Z" transform="translate(0 -7.7)"/><path class="cls-1" d="M60.7,75.4a1,1,0,0,1-1-1V39.8h-15V74.3a1,1,0,0,1-1,1,1.08,1.08,0,0,1-1-1V38.8a1,1,0,0,1,1-1h17a1,1,0,0,1,1,1V74.3A1,1,0,0,1,60.7,75.4Z" transform="translate(0 -7.7)"/><path class="cls-1" d="M76.7,60.7a.91.91,0,0,1-.8-.4l-7.8-9.5H60.7a1,1,0,0,1,0-2h7.9a.91.91,0,0,1,.8.4l8.1,9.9a1,1,0,0,1-.1,1.4A1,1,0,0,1,76.7,60.7Z" transform="translate(0 -7.7)"/><path class="cls-1" d="M9,57.5a1,1,0,0,1-1-1V54.8a1,1,0,0,1,2,0v1.7A1,1,0,0,1,9,57.5Z" transform="translate(0 -7.7)"/><path class="cls-1" d="M9,63.5a1,1,0,0,1-1-1V60.8a1,1,0,0,1,2,0v1.7A1,1,0,0,1,9,63.5Z" transform="translate(0 -7.7)"/><path class="cls-1" d="M52.2,59.7a1,1,0,0,1-1-1V57a1,1,0,0,1,2,0v1.7A.94.94,0,0,1,52.2,59.7Z" transform="translate(0 -7.7)"/><path class="cls-1" d="M52.2,65.8a1,1,0,0,1-1-1V63.1a1,1,0,0,1,2,0v1.7A1,1,0,0,1,52.2,65.8Z" transform="translate(0 -7.7)"/><path class="cls-1" d="M52.2,71.8a1,1,0,0,1-1-1V69.1a1,1,0,0,1,2,0v1.7A1,1,0,0,1,52.2,71.8Z" transform="translate(0 -7.7)"/><path class="cls-1" d="M23.7,65.8a1,1,0,0,1-1-1V63.1a1,1,0,0,1,2,0v1.7A1.08,1.08,0,0,1,23.7,65.8Z" transform="translate(0 -7.7)"/><path class="cls-1" d="M23.7,71.8a1,1,0,0,1-1-1V69.1a1,1,0,0,1,2,0v1.7A1.08,1.08,0,0,1,23.7,71.8Z" transform="translate(0 -7.7)"/><path class="cls-1" d="M37,65.8a1,1,0,0,1-1-1V63.1a1,1,0,1,1,2,0v1.7A1,1,0,0,1,37,65.8Z" transform="translate(0 -7.7)"/><path class="cls-1" d="M37,71.8a1,1,0,0,1-1-1V69.1a1,1,0,0,1,2,0v1.7A1,1,0,0,1,37,71.8Z" transform="translate(0 -7.7)"/><path class="cls-1" d="M67.8,65.8a1,1,0,0,1-1-1V63.1a1,1,0,0,1,2,0v1.7A1.08,1.08,0,0,1,67.8,65.8Z" transform="translate(0 -7.7)"/><path class="cls-1" d="M67.8,59.7a1,1,0,0,1-1-1V57a1,1,0,0,1,2,0v1.7A1,1,0,0,1,67.8,59.7Z" transform="translate(0 -7.7)"/><path class="cls-1" d="M67.8,71.8a1,1,0,0,1-1-1V69.1a1,1,0,0,1,2,0v1.7A1.08,1.08,0,0,1,67.8,71.8Z" transform="translate(0 -7.7)"/><path class="cls-1" d="M52.2,47.7a1,1,0,0,1-1-1V45a1,1,0,0,1,2,0v1.7A.94.94,0,0,1,52.2,47.7Z" transform="translate(0 -7.7)"/><path class="cls-1" d="M52.2,53.7a1,1,0,0,1-1-1V51a1,1,0,0,1,2,0v1.7A.94.94,0,0,1,52.2,53.7Z" transform="translate(0 -7.7)"/><path class="cls-1" d="M61.6,82.9A9.87,9.87,0,0,1,54,79.3a9.82,9.82,0,0,1-15.2,0,9.82,9.82,0,0,1-15.2,0,9.82,9.82,0,0,1-15.2,0A9.34,9.34,0,0,1,1,82.9a1,1,0,0,1,0-2A7.85,7.85,0,0,0,7.7,77a1.06,1.06,0,0,1,1.8,0,7.85,7.85,0,0,0,6.7,3.9A7.85,7.85,0,0,0,22.9,77a1.06,1.06,0,0,1,1.8,0,7.71,7.71,0,0,0,13.4,0,1.06,1.06,0,0,1,1.8,0,7.71,7.71,0,0,0,13.4,0,1.05,1.05,0,0,1,.9-.5h0a1.05,1.05,0,0,1,.9.5,7.85,7.85,0,0,0,6.7,3.9,1,1,0,0,1,1,1A1.52,1.52,0,0,1,61.6,82.9Z" transform="translate(0 -7.7)"/><path class="cls-1" d="M76.7,82.9a9.87,9.87,0,0,1-7.6-3.6,9.89,9.89,0,0,1-7.6,3.6,1,1,0,0,1,0-2A7.85,7.85,0,0,0,68.2,77,1.06,1.06,0,0,1,70,77a7.85,7.85,0,0,0,6.7,3.9,1,1,0,1,1,0,2Z" transform="translate(0 -7.7)"/><path class="cls-1" d="M61.6,92.3A9.87,9.87,0,0,1,54,88.7a9.82,9.82,0,0,1-15.2,0,9.82,9.82,0,0,1-15.2,0,9.82,9.82,0,0,1-15.2,0A9.34,9.34,0,0,1,1,92.3a1,1,0,0,1,0-2,7.85,7.85,0,0,0,6.7-3.9,1.06,1.06,0,0,1,1.8,0,7.85,7.85,0,0,0,6.7,3.9,7.85,7.85,0,0,0,6.7-3.9,1.06,1.06,0,0,1,1.8,0,7.71,7.71,0,0,0,13.4,0,1.06,1.06,0,0,1,1.8,0,7.71,7.71,0,0,0,13.4,0,1.05,1.05,0,0,1,.9-.5h0a1.05,1.05,0,0,1,.9.5,7.85,7.85,0,0,0,6.7,3.9,1,1,0,0,1,1,1A1.52,1.52,0,0,1,61.6,92.3Z" transform="translate(0 -7.7)"/><path class="cls-1" d="M76.7,92.3a9.87,9.87,0,0,1-7.6-3.6,9.89,9.89,0,0,1-7.6,3.6,1,1,0,0,1,0-2,7.85,7.85,0,0,0,6.7-3.9,1.06,1.06,0,0,1,1.8,0,7.85,7.85,0,0,0,6.7,3.9,1,1,0,0,1,0,2Z" transform="translate(0 -7.7)"/></svg>