<svg id="Layer_1" data-name="Layer 1" xmlns="http://www.w3.org/2000/svg" viewBox="0 0 34.81 59.08"><defs><style>.cls-1{fill:#2e2ab7;}.cls-1,.cls-2{stroke:#000;stroke-miterlimit:10;}.cls-2{fill:#f8ec20;}</style></defs><path class="cls-1" d="M32.72,17.9c-10.6-.06-21.21-.2-31.81-.17L1,11a52.19,52.19,0,0,1,31.81.19Q32.75,14.53,32.72,17.9Z" transform="translate(0.52 -8.1)"/><path class="cls-1" d="M16.85,8.6a53.26,53.26,0,0,1,15.93,2.58q0,3.35-.06,6.72c-10.6-.06-21.21-.2-31.81-.17L1,11A50.86,50.86,0,0,1,16.85,8.6" transform="translate(0.52 -8.1)"/><polyline class="cls-1" points="17.47 58.58 14.86 58.58 14.86 33.9 20.08 33.9 20.08 58.58 17.47 58.58"/><polyline class="cls-1" points="17.47 33.9 10.57 33.9 10.56 20.66 24.38 20.66 24.39 33.9 17.47 33.9"/><polygon class="cls-1" points="32.4 25.07 32.44 14.72 2.33 14.24 2.29 25.07 32.4 25.07"/><path class="cls-2" d="M33.43,22.93q-16.6-.78-33.25,0L0,17.42q16.88-.8,33.77,0C33.66,19.26,33.54,21.1,33.43,22.93Z" transform="translate(0.52 -8.1)"/><path class="cls-2" d="M17,22.54q-8.4,0-16.78.4L0,17.42Q8.43,17,16.88,17" transform="translate(0.52 -8.1)"/><path class="cls-2" d="M16.88,17q8.45,0,16.89.4c-.11,1.84-.23,3.68-.34,5.51Q25.2,22.56,17,22.54" transform="translate(0.52 -8.1)"/></svg>