<svg id="Layer_1" data-name="Layer 1" xmlns="http://www.w3.org/2000/svg" viewBox="0 0 30.01 30"><defs><style>.cls-1{fill:#fff;}</style></defs><path class="cls-1" d="M27.82,10.7A7.24,7.24,0,0,0,28,9.31,8,8,0,0,0,13.39,4.5,6,6,0,0,0,5.5,7.62,5.93,5.93,0,0,0,5,10.34a6,6,0,0,0-4,5.44,5.79,5.79,0,0,0,1.67,4.27A6.41,6.41,0,0,0,7.24,22H12a1,1,0,0,1,1,1v4.59l-1.29-1.3a1,1,0,0,0-1.42,1.42l3,3a1.15,1.15,0,0,0,.33.21.92.92,0,0,0,.76,0,.93.93,0,0,0,.33-.21l3-3a1,1,0,0,0,0-1.42,1,1,0,0,0-1.38,0L15,27.59V23a3,3,0,0,0-3-3H7.24a4.36,4.36,0,0,1-3.12-1.34A3.83,3.83,0,0,1,3,15.85a4,4,0,0,1,3.29-3.78,1,1,0,0,0,.81-1.16.43.43,0,0,0,0-.05,4.33,4.33,0,0,1-.08-.5,4.07,4.07,0,0,1,3.2-4.28,4,4,0,0,1,3,.59,1,1,0,0,0,1.39-.29l.06-.09a6,6,0,0,1,6.51-3.18A6.09,6.09,0,0,1,26,9.24a5.81,5.81,0,0,1-.32,1.7,1,1,0,0,0,.61,1.27h0A4,4,0,0,1,25,20H20a1,1,0,0,1-1-1V14.41l1.29,1.3a1,1,0,0,0,1.42-1.42l-3-3a1.15,1.15,0,0,0-.33-.21.92.92,0,0,0-.76,0,.93.93,0,0,0-.33.21l-3,3a1,1,0,0,0,1.39,1.44l0,0,1.3-1.3V19a3,3,0,0,0,3,3h5a6,6,0,0,0,2.82-11.3Z" transform="translate(-1 -1)"/></svg>